<svg version="1.1" id="Layer_1" xmlns="http://www.w3.org/2000/svg" x="0px" y="0px"
 viewBox="0 0 152 19.9" xml:space="preserve">

    <defs>
        <linearGradient id="grad3" x1="0%" y1="0%" x2="100%" y2="0%">
          <stop offset="0%" style="stop-color:#ffffff;stop-opacity:1" />
          <stop offset="100%" style="stop-color:#ffffff;stop-opacity:1" />
        </linearGradient>
    </defs>

    <path fill="url(#grad3)" class="st4" d="M151.5,6.1h-60C91.1,2.6,88.1,0,84.6,0c-2.4,0-4.6,1.3-5.8,3.2C78,2.9,77,2.8,76.1,2.8c-0.9,0-1.8,0.1-2.6,0.4
        C72.3,1.3,70.1,0,67.7,0c-3.5,0-6.4,2.6-6.8,6.1H0.5v3h60.6c0.9,2.8,3.5,4.8,6.6,4.8c0.1,0,0.1,0,0.2,0c1.1,3.5,4.3,6.1,8.2,6.1
        c3.9,0,7.1-2.6,8.2-6.1c0.1,0,0.2,0,0.3,0c3.1,0,5.7-2,6.6-4.8h60.3V6.1z M63.8,6.9c0-2.2,1.8-3.9,3.9-3.9c1.3,0,2.4,0.6,3.1,1.6
        c-1.9,1.5-3.1,3.7-3.3,6.2C65.5,10.7,63.8,9,63.8,6.9z M76.1,16.9c-3.1,0-5.6-2.5-5.6-5.6s2.5-5.6,5.6-5.6s5.6,2.5,5.6,5.6
        S79.2,16.9,76.1,16.9z M84.6,10.8C84.6,10.8,84.6,10.8,84.6,10.8c-0.2-2.5-1.4-4.7-3.2-6.2c0.7-1,1.9-1.7,3.2-1.7
        c2.2,0,3.9,1.8,3.9,3.9S86.8,10.8,84.6,10.8z"/>
</svg>
